<?xml version="1.0" encoding="UTF-8"?>
<svg id="Layer_1" data-name="Layer 1" xmlns="http://www.w3.org/2000/svg" xmlns:xlink="http://www.w3.org/1999/xlink" viewBox="0 0 1920 760.89">
  <defs>
    <style>
      .cls-1 {
        fill: none;
      }

      .cls-2 {
        clip-path: url(#clippath-1);
      }

      .cls-3 {
        fill: #fefefe;
      }

      .cls-4 {
        fill: #fefefe;
      }
    </style>
    <clipPath id="clippath-1">
      <rect class="cls-1" x="65.41" y="34.8" width="1789.18" height="691.29"/>
    </clipPath>
  </defs>
  <g class="cls-2">
    <path class="cls-4" d="M746.69,522.31v-33.72l152.08-182.98,3.05,11.9h-148.52v-39.67h194.3v35.7l-150.56,183.98-3.05-14.88h153.1v39.67h-200.4Z"/>
    <path class="cls-4" d="M1088.33,526.78c-18.65,0-34.67-3.72-48.06-11.16-13.4-7.44-23.57-18.18-30.52-32.23-6.95-14.05-10.43-31.16-10.43-51.33v-154.22h49.85v138.85c0,14.55,1.86,26.86,5.6,36.94,3.73,10.09,9.58,17.69,17.55,22.81,7.96,5.13,18.06,7.69,30.26,7.69,14.24,0,25.85-3.47,34.84-10.41,8.98-6.94,15.68-17.27,20.09-30.99,4.4-13.71,6.61-30.82,6.61-51.33v-113.56h49.34v244.47h-49.34v-52.56l10.17,1.98c-7.46,18.19-18.82,31.91-34.08,41.16-15.26,9.26-32.55,13.89-51.88,13.89Z"/>
    <path class="cls-4" d="M1285.47,522.31V176.68h50.36v345.64h-50.36ZM1456.37,522.31l-79.86-121-46.28,48.6v-61.99l109.36-110.09h63.58l-90.54,90.75,102.74,153.73h-59Z"/>
    <path class="cls-4" d="M1661.76,526.78c-20.35,0-37.98-3.31-52.9-9.92-14.92-6.61-27.3-15.78-37.13-27.52-9.84-11.73-17.21-25.12-22.13-40.17-4.92-15.04-7.38-30.82-7.38-47.36s2.37-32.48,7.12-47.85c4.74-15.37,11.87-29.09,21.36-41.16,9.49-12.06,21.44-21.65,35.86-28.76,14.41-7.11,31.45-10.66,51.12-10.66s36.62,3.22,50.86,9.67c14.24,6.45,25.94,15.37,35.1,26.78,9.15,11.41,16.02,24.22,20.6,38.43,4.58,14.22,6.87,29.26,6.87,45.13,0,1.66-.09,4.71-.25,9.17-.18,4.46-.6,8.68-1.27,12.64h-177.51c1.02,21.82,7.88,38.6,20.6,50.33,12.72,11.74,29.58,17.6,50.61,17.6,14.24,0,26.96-2.23,38.15-6.7,11.19-4.46,21.53-11.48,31.03-21.07l30.52,30.75c-9.84,9.59-19.93,17.36-30.26,23.31-10.35,5.95-21.2,10.34-32.55,13.14-11.36,2.8-24.16,4.21-38.4,4.21ZM1721.78,390.9c.68-2.64,1.1-5.28,1.27-7.93.17-2.64.25-5.28.25-7.93,0-7.6-1.36-15.04-4.07-22.32-2.72-7.27-6.79-13.8-12.21-19.59-5.43-5.78-12.13-10.41-20.09-13.89-7.97-3.47-17.21-5.21-27.72-5.21-13.91,0-25.78,3.06-35.6,9.17-9.84,6.12-17.38,14.13-22.63,24.05-5.26,9.92-8.39,20.66-9.41,32.23h146.49l-16.28,11.4Z"/>
  </g>
  <g>
    <path class="cls-3" d="M163.72,77.7l455.61-.12c.59,0,1.18.03,1.76.12,23.47,3.35,41.82,21.64,45.12,45.13.08.57.11,1.16.11,1.74v511.75c0,.58-.03,1.16-.11,1.73-3.27,23.5-21.66,41.79-45.12,45.13-.58.08-1.17.12-1.76.12H164.72c-.62,0-1.24-.04-1.85-.13-23.68-3.57-41.28-21.94-45.05-45.42-.1-.65-.15-1.32-.15-1.98V124.76c.01-.71.06-1.42.18-2.11,3.97-22.8,20.77-40.62,43.68-44.76.72-.13,1.45-.19,2.18-.19ZM177.4,100.42c-3.09,0-6.07,1.2-8.26,3.38-7.81,7.77-16.19,15.3-23.57,23.33-.77.83-4,4.19-4.3,4.71-.24.42-.48.77-.43,1.29.32,163.68-.52,327.52.4,491.11.02,3.08,1.24,6.03,3.4,8.23l27.08,27.46,1.5.64h437.56s1.71-.43,1.71-.43l30.67-31.1.43-1.29V133.55s-.43-1.71-.43-1.71l-30.45-30.89-1.5-.64-433.82.11Z"/>
    <polygon class="cls-4" points="498.16 257.33 498.16 276.42 350.18 492.4 496.02 492.4 496.02 515.99 285.41 515.99 285.41 499.05 433.4 280.93 303.21 280.93 302.55 279.45 303 257.33 498.16 257.33"/>
  </g>
</svg>